<svg xmlns="http://www.w3.org/2000/svg" width="540" height="320" viewBox="0 0 1600 900" preserveAspectRatio="xMidYMid slice">
  <defs>
    <linearGradient id="gNightDeep" x1="0" y1="0" x2="1" y2="1">
      <stop offset="0%" stop-color="#0e1530"/>
      <stop offset="50%" stop-color="#202544"/>
      <stop offset="100%" stop-color="#0d111d"/>
    </linearGradient>
    <linearGradient id="horizonGradNight2" x1="0" y1="0" x2="0" y2="1">
      <stop offset="0%" stop-color="#21170f" stop-opacity="0.95"/>
      <stop offset="100%" stop-color="#0b0907" stop-opacity="1"/>
    </linearGradient>
  </defs>
  <rect width="1600" height="900" fill="url(#gNightDeep)"/>
  <!-- Stars -->
  <g fill="rgba(255,255,255,0.95)">
    <circle cx="220" cy="140" r="1.6"/>
    <circle cx="480" cy="90" r="1.2"/>
    <circle cx="760" cy="180" r="1.3"/>
    <circle cx="1080" cy="120" r="1.5"/>
    <circle cx="1320" cy="220" r="1.1"/>
    <circle cx="150" cy="300" r="1.0"/>
    <circle cx="410" cy="260" r="1.4"/>
    <circle cx="940" cy="320" r="1.2"/>
    <circle cx="1220" cy="280" r="1.1"/>
    <circle cx="1460" cy="340" r="1.3"/>
  </g>
  <path d="M0,700 C280,680 520,720 800,700 C1080,680 1320,725 1600,700 L1600,900 L0,900 Z" fill="url(#horizonGradNight2)"/>
</svg>

